<svg xmlns="http://www.w3.org/2000/svg" width="24" height="24" viewBox="0 0 24 24">
    <defs>
        <style>
            .cls-1{fill:#05d88c}.cls-2{fill:none}
        </style>
    </defs>
    <g id="baseline-location_on-24px" transform="translate(-140 -4706)">
        <path id="Path_131" d="M12 2a7 7 0 0 0-7 7c0 5.25 7 13 7 13s7-7.75 7-13a7 7 0 0 0-7-7zm0 10c-1.38 0-2-1.62-2-3s.62-2 2-2 3 .62 3 2a3.44 3.44 0 0 1-3 3z" class="cls-1" data-name="Path 131" transform="translate(140 4706)"/>
        <path id="Path_132" d="M0 0h24v24H0z" class="cls-2" data-name="Path 132" transform="translate(140 4706)"/>
    </g>
</svg>
