<svg xmlns="http://www.w3.org/2000/svg" width="30.847" height="21.5" viewBox="0 0 30.847 21.5">
    <defs>
        <style>
            .cls-1{fill:#05d88c}
        </style>
    </defs>
    <g id="youtube-symbol" transform="translate(0 -14.676)">
        <path id="Path_142" d="M30.314 18.135a3.9 3.9 0 0 0-3.335-3.035 103.648 103.648 0 0 0-11.551-.427 103.665 103.665 0 0 0-11.552.427 3.9 3.9 0 0 0-3.332 3.035A33.036 33.036 0 0 0 0 25.427a33.026 33.026 0 0 0 .537 7.291 3.9 3.9 0 0 0 3.334 3.031 103.575 103.575 0 0 0 11.551.427 103.554 103.554 0 0 0 11.551-.427 3.9 3.9 0 0 0 3.334-3.031 33.01 33.01 0 0 0 .54-7.291 33.031 33.031 0 0 0-.533-7.292zM11.443 30.214v-10.2l9.807 5.116z" class="cls-1" data-name="Path 142"/>
    </g>
</svg>
